<mxfile host="app.diagrams.net" modified="2023-10-19T16:14:16.193Z" agent="Mozilla/5.0 (Windows NT 10.0; Win64; x64) AppleWebKit/537.36 (KHTML, like Gecko) Chrome/118.0.0.0 Safari/537.36" etag="9RMW-NQGyZmc0FD8xjM_" version="21.7.4" type="device">
  <diagram name="Page-1" id="_9MIA9FnPJSmYK65Kkzg">
    <mxGraphModel dx="1647" dy="861" grid="1" gridSize="10" guides="1" tooltips="1" connect="1" arrows="1" fold="1" page="1" pageScale="1" pageWidth="3000" pageHeight="3000" math="0" shadow="0">
      <root>
        <mxCell id="0" />
        <mxCell id="1" parent="0" />
        <mxCell id="2D3XegfFZDz4iYP03lXG-2" value="&lt;font style=&quot;font-size: 14px;&quot;&gt;Ac office&lt;/font&gt;" style="rounded=0;whiteSpace=wrap;html=1;" vertex="1" parent="1">
          <mxGeometry x="380" y="170" width="140" height="60" as="geometry" />
        </mxCell>
        <mxCell id="2D3XegfFZDz4iYP03lXG-3" value="&lt;u&gt;&lt;font style=&quot;font-size: 14px;&quot;&gt;Ac office id&lt;/font&gt;&lt;/u&gt;" style="ellipse;whiteSpace=wrap;html=1;" vertex="1" parent="1">
          <mxGeometry x="340" y="40" width="110" height="80" as="geometry" />
        </mxCell>
        <mxCell id="2D3XegfFZDz4iYP03lXG-5" value="&lt;font style=&quot;font-size: 14px;&quot;&gt;Ac office name&lt;/font&gt;" style="ellipse;whiteSpace=wrap;html=1;" vertex="1" parent="1">
          <mxGeometry x="200" y="160" width="110" height="80" as="geometry" />
        </mxCell>
        <mxCell id="2D3XegfFZDz4iYP03lXG-6" value="&lt;font style=&quot;font-size: 14px;&quot;&gt;Edu quality&lt;/font&gt;" style="rounded=0;whiteSpace=wrap;html=1;" vertex="1" parent="1">
          <mxGeometry x="1010" y="230" width="120" height="60" as="geometry" />
        </mxCell>
        <mxCell id="2D3XegfFZDz4iYP03lXG-13" value="" style="endArrow=none;html=1;rounded=0;exitX=0.25;exitY=0;exitDx=0;exitDy=0;" edge="1" parent="1" source="2D3XegfFZDz4iYP03lXG-2">
          <mxGeometry width="50" height="50" relative="1" as="geometry">
            <mxPoint x="350" y="170" as="sourcePoint" />
            <mxPoint x="400" y="120" as="targetPoint" />
          </mxGeometry>
        </mxCell>
        <mxCell id="2D3XegfFZDz4iYP03lXG-14" value="" style="endArrow=none;html=1;rounded=0;" edge="1" parent="1" source="2D3XegfFZDz4iYP03lXG-5">
          <mxGeometry width="50" height="50" relative="1" as="geometry">
            <mxPoint x="310" y="250" as="sourcePoint" />
            <mxPoint x="380.71067811865476" y="200" as="targetPoint" />
          </mxGeometry>
        </mxCell>
        <mxCell id="2D3XegfFZDz4iYP03lXG-15" value="&lt;font style=&quot;font-size: 14px;&quot;&gt;&lt;u&gt;Course id&lt;/u&gt;&lt;/font&gt;" style="ellipse;whiteSpace=wrap;html=1;" vertex="1" parent="1">
          <mxGeometry x="860" y="140" width="120" height="80" as="geometry" />
        </mxCell>
        <mxCell id="2D3XegfFZDz4iYP03lXG-16" value="&lt;font style=&quot;font-size: 14px;&quot;&gt;Course name&lt;/font&gt;" style="ellipse;whiteSpace=wrap;html=1;" vertex="1" parent="1">
          <mxGeometry x="1120" y="100" width="120" height="80" as="geometry" />
        </mxCell>
        <mxCell id="2D3XegfFZDz4iYP03lXG-18" value="" style="endArrow=none;html=1;rounded=0;exitX=1;exitY=0.5;exitDx=0;exitDy=0;" edge="1" parent="1" source="2D3XegfFZDz4iYP03lXG-17">
          <mxGeometry width="50" height="50" relative="1" as="geometry">
            <mxPoint x="1240" y="310" as="sourcePoint" />
            <mxPoint x="1290" y="260" as="targetPoint" />
          </mxGeometry>
        </mxCell>
        <mxCell id="2D3XegfFZDz4iYP03lXG-19" value="" style="endArrow=none;html=1;rounded=0;exitX=1;exitY=0.5;exitDx=0;exitDy=0;" edge="1" parent="1" source="2D3XegfFZDz4iYP03lXG-6" target="2D3XegfFZDz4iYP03lXG-17">
          <mxGeometry width="50" height="50" relative="1" as="geometry">
            <mxPoint x="1150" y="280" as="sourcePoint" />
            <mxPoint x="1290" y="260" as="targetPoint" />
          </mxGeometry>
        </mxCell>
        <mxCell id="2D3XegfFZDz4iYP03lXG-17" value="&lt;font style=&quot;font-size: 14px;&quot;&gt;Course type&lt;/font&gt;" style="ellipse;whiteSpace=wrap;html=1;" vertex="1" parent="1">
          <mxGeometry x="1230" y="220" width="120" height="80" as="geometry" />
        </mxCell>
        <mxCell id="2D3XegfFZDz4iYP03lXG-20" value="" style="endArrow=none;html=1;rounded=0;exitX=0.75;exitY=0;exitDx=0;exitDy=0;" edge="1" parent="1" source="2D3XegfFZDz4iYP03lXG-6">
          <mxGeometry width="50" height="50" relative="1" as="geometry">
            <mxPoint x="1140" y="230" as="sourcePoint" />
            <mxPoint x="1190" y="180" as="targetPoint" />
          </mxGeometry>
        </mxCell>
        <mxCell id="2D3XegfFZDz4iYP03lXG-21" value="" style="endArrow=none;html=1;rounded=0;exitX=-0.019;exitY=0.397;exitDx=0;exitDy=0;exitPerimeter=0;entryX=0.564;entryY=1.02;entryDx=0;entryDy=0;entryPerimeter=0;" edge="1" parent="1" source="2D3XegfFZDz4iYP03lXG-6" target="2D3XegfFZDz4iYP03lXG-15">
          <mxGeometry width="50" height="50" relative="1" as="geometry">
            <mxPoint x="930" y="230" as="sourcePoint" />
            <mxPoint x="980" y="180" as="targetPoint" />
          </mxGeometry>
        </mxCell>
        <mxCell id="2D3XegfFZDz4iYP03lXG-22" value="&lt;font style=&quot;font-size: 14px;&quot;&gt;Employee&lt;/font&gt;" style="rounded=0;whiteSpace=wrap;html=1;" vertex="1" parent="1">
          <mxGeometry x="660" y="350" width="120" height="60" as="geometry" />
        </mxCell>
        <mxCell id="2D3XegfFZDz4iYP03lXG-23" value="&lt;font style=&quot;font-size: 14px;&quot;&gt;&lt;u&gt;NIC&lt;/u&gt;&lt;/font&gt;" style="ellipse;whiteSpace=wrap;html=1;" vertex="1" parent="1">
          <mxGeometry x="440" y="370" width="120" height="80" as="geometry" />
        </mxCell>
        <mxCell id="2D3XegfFZDz4iYP03lXG-24" value="&lt;font style=&quot;font-size: 14px;&quot;&gt;Employee name&lt;/font&gt;" style="ellipse;whiteSpace=wrap;html=1;" vertex="1" parent="1">
          <mxGeometry x="620" y="480" width="120" height="80" as="geometry" />
        </mxCell>
        <mxCell id="2D3XegfFZDz4iYP03lXG-26" value="" style="endArrow=none;html=1;rounded=0;entryX=0.5;entryY=1;entryDx=0;entryDy=0;exitX=0.684;exitY=0.061;exitDx=0;exitDy=0;exitPerimeter=0;" edge="1" parent="1" source="2D3XegfFZDz4iYP03lXG-24" target="2D3XegfFZDz4iYP03lXG-22">
          <mxGeometry width="50" height="50" relative="1" as="geometry">
            <mxPoint x="700" y="470" as="sourcePoint" />
            <mxPoint x="710" y="420" as="targetPoint" />
          </mxGeometry>
        </mxCell>
        <mxCell id="2D3XegfFZDz4iYP03lXG-27" value="" style="endArrow=none;html=1;rounded=0;entryX=0;entryY=0.5;entryDx=0;entryDy=0;exitX=1;exitY=0.5;exitDx=0;exitDy=0;" edge="1" parent="1" source="2D3XegfFZDz4iYP03lXG-23" target="2D3XegfFZDz4iYP03lXG-22">
          <mxGeometry width="50" height="50" relative="1" as="geometry">
            <mxPoint x="550" y="510" as="sourcePoint" />
            <mxPoint x="600" y="460" as="targetPoint" />
          </mxGeometry>
        </mxCell>
        <mxCell id="2D3XegfFZDz4iYP03lXG-28" value="Has" style="rhombus;whiteSpace=wrap;html=1;" vertex="1" parent="1">
          <mxGeometry x="650" y="140" width="140" height="120" as="geometry" />
        </mxCell>
        <mxCell id="2D3XegfFZDz4iYP03lXG-31" value="" style="endArrow=none;html=1;rounded=0;exitX=1;exitY=0.5;exitDx=0;exitDy=0;entryX=0;entryY=0.5;entryDx=0;entryDy=0;" edge="1" parent="1" source="2D3XegfFZDz4iYP03lXG-2" target="2D3XegfFZDz4iYP03lXG-28">
          <mxGeometry width="50" height="50" relative="1" as="geometry">
            <mxPoint x="590" y="260" as="sourcePoint" />
            <mxPoint x="640" y="210" as="targetPoint" />
          </mxGeometry>
        </mxCell>
        <mxCell id="2D3XegfFZDz4iYP03lXG-32" value="" style="endArrow=none;html=1;rounded=0;entryX=0.5;entryY=1;entryDx=0;entryDy=0;exitX=0.5;exitY=0;exitDx=0;exitDy=0;" edge="1" parent="1" source="2D3XegfFZDz4iYP03lXG-22" target="2D3XegfFZDz4iYP03lXG-28">
          <mxGeometry width="50" height="50" relative="1" as="geometry">
            <mxPoint x="710" y="350" as="sourcePoint" />
            <mxPoint x="760" y="300" as="targetPoint" />
          </mxGeometry>
        </mxCell>
        <mxCell id="2D3XegfFZDz4iYP03lXG-37" value="Has" style="rhombus;whiteSpace=wrap;html=1;" vertex="1" parent="1">
          <mxGeometry x="960" y="350" width="140" height="120" as="geometry" />
        </mxCell>
        <mxCell id="2D3XegfFZDz4iYP03lXG-40" value="" style="endArrow=none;html=1;rounded=0;exitX=0.5;exitY=0;exitDx=0;exitDy=0;" edge="1" parent="1" source="2D3XegfFZDz4iYP03lXG-37">
          <mxGeometry width="50" height="50" relative="1" as="geometry">
            <mxPoint x="1020" y="340" as="sourcePoint" />
            <mxPoint x="1070" y="290" as="targetPoint" />
          </mxGeometry>
        </mxCell>
        <mxCell id="2D3XegfFZDz4iYP03lXG-41" value="" style="endArrow=none;html=1;rounded=0;entryX=0;entryY=0.5;entryDx=0;entryDy=0;" edge="1" parent="1" target="2D3XegfFZDz4iYP03lXG-37">
          <mxGeometry width="50" height="50" relative="1" as="geometry">
            <mxPoint x="780" y="380" as="sourcePoint" />
            <mxPoint x="830" y="330" as="targetPoint" />
          </mxGeometry>
        </mxCell>
        <mxCell id="2D3XegfFZDz4iYP03lXG-42" value="&lt;font style=&quot;font-size: 14px;&quot;&gt;Date&lt;/font&gt;" style="ellipse;whiteSpace=wrap;html=1;" vertex="1" parent="1">
          <mxGeometry x="960" y="560" width="120" height="80" as="geometry" />
        </mxCell>
        <mxCell id="2D3XegfFZDz4iYP03lXG-43" value="&lt;font style=&quot;font-size: 14px;&quot;&gt;Time Period&lt;/font&gt;" style="ellipse;whiteSpace=wrap;html=1;" vertex="1" parent="1">
          <mxGeometry x="1170" y="390" width="120" height="80" as="geometry" />
        </mxCell>
        <mxCell id="2D3XegfFZDz4iYP03lXG-44" value="" style="endArrow=none;html=1;rounded=0;exitX=0.277;exitY=0.047;exitDx=0;exitDy=0;exitPerimeter=0;entryX=0.5;entryY=1;entryDx=0;entryDy=0;" edge="1" parent="1" source="2D3XegfFZDz4iYP03lXG-42" target="2D3XegfFZDz4iYP03lXG-37">
          <mxGeometry width="50" height="50" relative="1" as="geometry">
            <mxPoint x="910" y="510" as="sourcePoint" />
            <mxPoint x="960" y="460" as="targetPoint" />
          </mxGeometry>
        </mxCell>
        <mxCell id="2D3XegfFZDz4iYP03lXG-45" value="" style="endArrow=none;html=1;rounded=0;exitX=1;exitY=0.5;exitDx=0;exitDy=0;entryX=0;entryY=0.625;entryDx=0;entryDy=0;entryPerimeter=0;" edge="1" parent="1" source="2D3XegfFZDz4iYP03lXG-37" target="2D3XegfFZDz4iYP03lXG-43">
          <mxGeometry width="50" height="50" relative="1" as="geometry">
            <mxPoint x="1100" y="510" as="sourcePoint" />
            <mxPoint x="1150" y="460" as="targetPoint" />
          </mxGeometry>
        </mxCell>
        <mxCell id="2D3XegfFZDz4iYP03lXG-46" value="M" style="text;html=1;strokeColor=none;fillColor=none;align=center;verticalAlign=middle;whiteSpace=wrap;rounded=0;" vertex="1" parent="1">
          <mxGeometry x="780" y="360" width="60" height="30" as="geometry" />
        </mxCell>
        <mxCell id="2D3XegfFZDz4iYP03lXG-47" value="N" style="text;html=1;strokeColor=none;fillColor=none;align=center;verticalAlign=middle;whiteSpace=wrap;rounded=0;" vertex="1" parent="1">
          <mxGeometry x="1010" y="300" width="60" height="30" as="geometry" />
        </mxCell>
        <mxCell id="2D3XegfFZDz4iYP03lXG-49" value="1" style="text;html=1;strokeColor=none;fillColor=none;align=center;verticalAlign=middle;whiteSpace=wrap;rounded=0;" vertex="1" parent="1">
          <mxGeometry x="520" y="170" width="60" height="30" as="geometry" />
        </mxCell>
        <mxCell id="2D3XegfFZDz4iYP03lXG-51" value="N" style="text;html=1;strokeColor=none;fillColor=none;align=center;verticalAlign=middle;whiteSpace=wrap;rounded=0;" vertex="1" parent="1">
          <mxGeometry x="660" y="320" width="60" height="30" as="geometry" />
        </mxCell>
        <mxCell id="2D3XegfFZDz4iYP03lXG-52" value="&lt;font style=&quot;font-size: 14px;&quot;&gt;Admin&lt;/font&gt;" style="rounded=0;whiteSpace=wrap;html=1;" vertex="1" parent="1">
          <mxGeometry x="170" y="390" width="120" height="60" as="geometry" />
        </mxCell>
        <mxCell id="2D3XegfFZDz4iYP03lXG-53" value="&lt;font style=&quot;font-size: 14px;&quot;&gt;&lt;u&gt;User name&lt;/u&gt;&lt;/font&gt;" style="ellipse;whiteSpace=wrap;html=1;" vertex="1" parent="1">
          <mxGeometry x="80" y="530" width="120" height="80" as="geometry" />
        </mxCell>
        <mxCell id="2D3XegfFZDz4iYP03lXG-54" value="&lt;font style=&quot;font-size: 14px;&quot;&gt;Password&lt;/font&gt;" style="ellipse;whiteSpace=wrap;html=1;" vertex="1" parent="1">
          <mxGeometry x="290" y="490" width="120" height="80" as="geometry" />
        </mxCell>
        <mxCell id="2D3XegfFZDz4iYP03lXG-55" value="" style="endArrow=none;html=1;rounded=0;exitX=0.657;exitY=0.006;exitDx=0;exitDy=0;exitPerimeter=0;entryX=0.5;entryY=1;entryDx=0;entryDy=0;" edge="1" parent="1" source="2D3XegfFZDz4iYP03lXG-53" target="2D3XegfFZDz4iYP03lXG-52">
          <mxGeometry width="50" height="50" relative="1" as="geometry">
            <mxPoint x="170" y="520" as="sourcePoint" />
            <mxPoint x="220" y="470" as="targetPoint" />
          </mxGeometry>
        </mxCell>
        <mxCell id="2D3XegfFZDz4iYP03lXG-56" value="" style="endArrow=none;html=1;rounded=0;entryX=0.5;entryY=0;entryDx=0;entryDy=0;exitX=1;exitY=0.5;exitDx=0;exitDy=0;" edge="1" parent="1" source="2D3XegfFZDz4iYP03lXG-52" target="2D3XegfFZDz4iYP03lXG-54">
          <mxGeometry width="50" height="50" relative="1" as="geometry">
            <mxPoint x="290" y="440" as="sourcePoint" />
            <mxPoint x="370" y="480" as="targetPoint" />
          </mxGeometry>
        </mxCell>
        <mxCell id="2D3XegfFZDz4iYP03lXG-58" value="Text" style="text;html=1;strokeColor=none;fillColor=none;align=center;verticalAlign=middle;whiteSpace=wrap;rounded=0;" vertex="1" parent="1">
          <mxGeometry x="800" y="410" width="60" height="30" as="geometry" />
        </mxCell>
      </root>
    </mxGraphModel>
  </diagram>
</mxfile>
